<svg xmlns="http://www.w3.org/2000/svg" width="504.955" height="518.137" viewBox="0 0 504.955 518.137"><path d="M3019.31-563.332a1.058,1.058,0,0,0-1.573,0l-13.108,15.681a1.029,1.029,0,0,0-.144,1.092,1.027,1.027,0,0,0,.93.59h26.218a1.027,1.027,0,0,0,.93-.59,1.029,1.029,0,0,0-.143-1.092Z" transform="translate(-2572.21 922.731)"/><path d="M2924.907-684.8v53.331a1.025,1.025,0,0,0,1.024,1.024H2973.1a1.025,1.025,0,0,0,1.024-1.024V-684.8a1.023,1.023,0,0,0-1.024-1.024h-47.171A1.023,1.023,0,0,0,2924.907-684.8Zm2.049,1.024h45.121V-632.5h-45.121Z" transform="translate(-2655.567 794.629)"/><path d="M2938.63-675.467a3.348,3.348,0,0,0,3.344-3.344,3.347,3.347,0,0,0-3.344-3.342,3.346,3.346,0,0,0-3.343,3.342A3.347,3.347,0,0,0,2938.63-675.467Zm0-4.636a1.294,1.294,0,0,1,1.3,1.293,1.3,1.3,0,0,1-1.3,1.295,1.3,1.3,0,0,1-1.294-1.295A1.294,1.294,0,0,1,2938.63-680.1Z" transform="translate(-2644.681 798.485)"/><path d="M2960.433-674.351h-30.412a1.024,1.024,0,0,0-1.024,1.024,1.023,1.023,0,0,0,1.024,1.024h30.412a1.024,1.024,0,0,0,1.025-1.024A1.025,1.025,0,0,0,2960.433-674.351Z" transform="translate(-2651.278 806.666)"/><path d="M2960.433-670.066h-30.412a1.023,1.023,0,0,0-1.024,1.025,1.024,1.024,0,0,0,1.024,1.024h30.412a1.025,1.025,0,0,0,1.025-1.024A1.024,1.024,0,0,0,2960.433-670.066Z" transform="translate(-2651.278 811.16)"/><path d="M2944.481-665.781h-14.46a1.023,1.023,0,0,0-1.024,1.024,1.024,1.024,0,0,0,1.024,1.024h14.46a1.025,1.025,0,0,0,1.024-1.024A1.023,1.023,0,0,0,2944.481-665.781Z" transform="translate(-2651.278 815.654)"/><rect width="20.769" height="21.094" rx="0.5" transform="translate(300.323 58.494)"/><path d="M2906.719-678.454a1.025,1.025,0,0,0,1.024,1.024h4.991a7.188,7.188,0,0,0,2.235,1.453.987.987,0,0,0,.363.068H2947.5a1.028,1.028,0,0,0,1-.8,1.026,1.026,0,0,0-.557-1.149c-4.282-2.047-6.861-8.994-7.007-12.975v-18.986a1.025,1.025,0,0,0-1.024-1.024h-32.169a1.025,1.025,0,0,0-1.024,1.024v6.861l0,9.977,0,0Zm2.049-23.481h22.649a1.023,1.023,0,0,0,1.024-1.024,1.022,1.022,0,0,0-1.024-1.024h-22.649v-4.81h30.12v18c.132,3.62,1.937,9.42,5.438,12.838h-28.793c-3.464-1.508-6.558-8.822-6.765-12.874Z" transform="translate(-2674.642 768.395)"/><path d="M2936.1-578.969a7.962,7.962,0,0,0,3.979,1.092,6.084,6.084,0,0,0,5.394-2.893,5.823,5.823,0,0,0,.352-4.964,7.793,7.793,0,0,0-3.479-4.054c-3.444-1.987-7.65-1.182-9.373,1.8S2932.652-580.957,2936.1-578.969Zm-1.353-7.994a4.03,4.03,0,0,1,3.6-1.875,5.989,5.989,0,0,1,2.973.822,5.758,5.758,0,0,1,2.575,2.977,3.8,3.8,0,0,1-.2,3.245c-1.155,2-4.1,2.477-6.573,1.053S2933.59-584.958,2934.747-586.964Z" transform="translate(-2647.881 894.208)"/><path d="M2979.268-655.4c-4.515-1.731-8.344-1.819-11.376-.266a10.287,10.287,0,0,0-4.978,6.06,1.022,1.022,0,0,0,.725,1.248.979.979,0,0,0,.264.033,1.025,1.025,0,0,0,.99-.758,8.354,8.354,0,0,1,3.956-4.77c2.494-1.266,5.753-1.139,9.685.367a1.021,1.021,0,0,0,1.323-.59A1.022,1.022,0,0,0,2979.268-655.4Z" transform="translate(-2615.743 825.103)"/><path d="M2983.614-662.249a1.021,1.021,0,0,0-.82,1.192,1.027,1.027,0,0,0,1.192.819c.057-.006,5.548-.965,8.144,3.809a1.028,1.028,0,0,0,.9.535,1.024,1.024,0,0,0,.49-.123,1.027,1.027,0,0,0,.411-1.391A9.883,9.883,0,0,0,2983.614-662.249Z" transform="translate(-2594.876 819.212)"/><path d="M2831.956-650.258A19.121,19.121,0,0,0,2812.7-669.2a19.12,19.12,0,0,0-19.256,18.937,19.121,19.121,0,0,0,19.256,18.935A19.121,19.121,0,0,0,2831.956-650.258Z" transform="translate(-2793.442 812.073)"/><path d="M2819.632-681.871a.992.992,0,0,0,.4.08,1.021,1.021,0,0,0,.719-.293l26.188-25.726,14.949-14.686a1.025,1.025,0,0,0,.23-1.119,1.027,1.027,0,0,0-.948-.635h-41.137a1.025,1.025,0,0,0-1.025,1.024v40.41A1.024,1.024,0,0,0,2819.632-681.871Zm1.419-40.33h37.607l-37.607,36.943Z" transform="translate(-2766.635 754.335)"/><path d="M2844.076-702.336a1.019,1.019,0,0,0,.708-.283c2.926-2.807,5.976-5.568,9.07-8.205a1.025,1.025,0,0,0,.114-1.444,1.021,1.021,0,0,0-1.444-.117c-3.122,2.665-6.2,5.452-9.157,8.285a1.021,1.021,0,0,0-.031,1.448A1.014,1.014,0,0,0,2844.076-702.336Z" transform="translate(-2741.415 766.52)"/><path d="M2827.784-684.46c-2.011,3.579-3.942,7.261-5.733,10.942a1.022,1.022,0,0,0,.47,1.369,1.037,1.037,0,0,0,.449.1,1.028,1.028,0,0,0,.921-.576c1.776-3.645,3.686-7.29,5.68-10.834a1.023,1.023,0,0,0-.391-1.4A1.02,1.02,0,0,0,2827.784-684.46Z" transform="translate(-2763.547 795.515)"/><path d="M2843.259-704c-2.795,3.018-5.53,6.144-8.128,9.3a1.025,1.025,0,0,0,.14,1.443,1.013,1.013,0,0,0,.649.234,1.028,1.028,0,0,0,.793-.371c2.574-3.124,5.282-6.222,8.05-9.209a1.026,1.026,0,0,0-.055-1.448A1.022,1.022,0,0,0,2843.259-704Z" transform="translate(-2749.967 775.228)"/><path d="M2834.975-694.65c-2.414,3.307-4.763,6.734-6.984,10.186a1.028,1.028,0,0,0,.307,1.418,1.034,1.034,0,0,0,.553.162,1.019,1.019,0,0,0,.863-.471c2.2-3.42,4.525-6.814,6.915-10.086a1.024,1.024,0,0,0-.222-1.434A1.025,1.025,0,0,0,2834.975-694.65Z" transform="translate(-2757.379 784.936)"/><path d="M2853.2-710.692a1.019,1.019,0,0,0,.616-.207c3.244-2.454,6.6-4.837,9.966-7.083a1.026,1.026,0,0,0,.285-1.422,1.021,1.021,0,0,0-1.419-.283c-3.406,2.27-6.79,4.677-10.068,7.154a1.024,1.024,0,0,0-.2,1.434A1.023,1.023,0,0,0,2853.2-710.692Z" transform="translate(-2731.845 758.938)"/><path d="M2863.173-717.976a1.046,1.046,0,0,0,.516-.139c3.493-2.047,7.1-4.02,10.729-5.866a1.024,1.024,0,0,0,.449-1.377,1.022,1.022,0,0,0-1.376-.447c-3.664,1.862-7.309,3.854-10.836,5.919a1.027,1.027,0,0,0-.367,1.4A1.03,1.03,0,0,0,2863.173-717.976Z" transform="translate(-2721.386 752.585)"/><path d="M2873.858-724.085a1,1,0,0,0,.41-.086c3.723-1.623,7.539-3.155,11.343-4.55a1.026,1.026,0,0,0,.607-1.318,1.029,1.029,0,0,0-1.312-.608c-3.842,1.414-7.7,2.96-11.458,4.6a1.025,1.025,0,0,0-.53,1.348A1.027,1.027,0,0,0,2873.858-724.085Z" transform="translate(-2710.18 747.562)"/><path d="M2885.105-728.926a.977.977,0,0,0,.3-.043c3.874-1.166,7.844-2.235,11.8-3.176a1.022,1.022,0,0,0,.759-1.231,1.024,1.024,0,0,0-1.234-.76c-3.994.947-8,2.028-11.915,3.206a1.023,1.023,0,0,0-.685,1.276A1.024,1.024,0,0,0,2885.105-728.926Z" transform="translate(-2698.382 743.937)"/><path d="M3055.5-648.194h-30.4a1.024,1.024,0,0,0-1.024,1.025V-617.3a1.025,1.025,0,0,0,1.024,1.024h30.4a1.025,1.025,0,0,0,1.025-1.024V-647.17A1.024,1.024,0,0,0,3055.5-648.194Zm-1.024,29.865h-28.351v-27.816h28.351Z" transform="translate(-2551.566 834.099)"/><path d="M3037.724-637.479c-.2-4.505-2.09-8.322-5.183-10.475-1.337-.93-2.436-1.616-3.375-2.2-2.975-1.854-4.087-2.549-6.063-6.9-2.2-4.866-7.961-8.107-14.659-8.259-6.23-.119-11.449,2.479-13.762,7.023-2.387,4.679-4.606,7.509-13.4,4.263-6.562-2.426-14.532.223-18.938,6.3-4.328,5.962-4,13.206.88,19.379,4.175,5.278,10.781,8.1,19.1,8.164.3,0,.6-.016.9-.021.3,5.442,4.54,15.2,11.6,20.613.041.932.017,2.043-.008,2.975l0,.162h-4.9a11.745,11.745,0,0,0,.844,7.173l3.1.094h.074a2.541,2.541,0,0,0,2.438-1.834,16.333,16.333,0,0,0,.475-4.407c0-.3.01-.69.023-1.137.012-.5.024-1.057.028-1.617a18.135,18.135,0,0,0,3.568,1.653,15.317,15.317,0,0,0,4.835.791c3.254,0,7.06-1.066,11.218-4.161l-.062,4.141h-.016v1.006a16.269,16.269,0,0,0,.2,2.909,3.957,3.957,0,0,0,3.295,3.352l5.57.727a13,13,0,0,0,2.838-6.433c-2.09-.4-7.132-1.323-9.838-1.532l.088-5.87a44.328,44.328,0,0,0,5.577-6.058,3.785,3.785,0,0,0,.906.123,3.762,3.762,0,0,0,1.8-.463c5.878-3.2,4.777-11.678,4.72-12.09-.008-.037-.649-3.587,1.764-5.605C3036.223-628.091,3037.935-632.713,3037.724-637.479Zm-36.615,39c-8.244-2.737-13.929-12.739-15.446-19.275,12.969-.4,24.226-8.642,27.716-14.159l.03-.049.019-.02a6.205,6.205,0,0,1,1.344,3.948,4.361,4.361,0,0,0,1.125,3.333,2.146,2.146,0,0,0,1.18.526,1.554,1.554,0,0,0,.727.033c.877-.17,1.717-1.037,2.638-2.731a1.418,1.418,0,0,1,1.174-.8,1.518,1.518,0,0,1,1.286.559,6.108,6.108,0,0,1,.707,3.673,4.378,4.378,0,0,1-2.434,3.473,1.017,1.017,0,0,0-.53,1.266.969.969,0,0,0,.08.543,8.273,8.273,0,0,1,.461,3.94,14.258,14.258,0,0,0,.186,3.7,3.731,3.731,0,0,0,1,1.817C3015.364-599.722,3008.028-596.182,3001.109-598.478Zm30.938-28.791c-3.352,2.8-2.5,7.373-2.473,7.511.01.074.969,7.421-3.68,9.955a1.715,1.715,0,0,1-1.546.053,1.72,1.72,0,0,1-.973-1.2,12.679,12.679,0,0,1-.141-3.188,10.85,10.85,0,0,0-.487-4.417,6.391,6.391,0,0,0,2.9-4.655,8.1,8.1,0,0,0-1.1-5.122,3.49,3.49,0,0,0-3.073-1.383,3.47,3.47,0,0,0-2.828,1.864,5.645,5.645,0,0,1-1.167,1.635,1.44,1.44,0,0,0-.187,0c-.1-.029-.459-.43-.473-1.846a8.123,8.123,0,0,0-2.03-5.464c1.621-1.793,3.143-2.682,4.458-2.512,1.811.2,2.863,2.289,2.874,2.307a1.023,1.023,0,0,0,1.369.473,1.028,1.028,0,0,0,.473-1.371c-.061-.127-1.539-3.1-4.469-3.444-2.227-.254-4.552,1.074-6.913,3.969-4.726,5.8-18.025,11.877-30.235,11.862-5.357-.041-12.743-1.354-17.513-7.388-4.276-5.409-4.587-11.729-.832-16.9,3.878-5.345,10.849-7.683,16.574-5.577,9.378,3.464,12.832.821,15.927-5.257,1.919-3.766,6.447-6.036,11.891-5.9,5.829.131,10.99,2.967,12.844,7.054,2.229,4.917,3.77,5.88,6.843,7.8.914.57,1.985,1.24,3.288,2.143,2.565,1.786,4.136,5.026,4.306,8.885C3035.86-633.3,3034.4-629.236,3032.047-627.27Z" transform="translate(-2619.477 816.139)"/><path d="M3228.559-440.678c.05-.213.1-.434.147-.649.043-.186.094-.373.138-.557,0-.017,0-.029,0-.043a224.131,224.131,0,0,0,4.208-24.448,209.161,209.161,0,0,0,8.4-58.9,207.463,207.463,0,0,0-17.085-82.907c1.248-.414,2.491-.864,3.713-1.374l.956-.4-.016-.037a51.271,51.271,0,0,0,30.544-46.951,51.419,51.419,0,0,0-51.365-51.362,51.088,51.088,0,0,0-39.422,18.459l-.01-.008-.651.789,0,0-.008.01,0,0c-.685.83-1.381,1.783-2.094,2.813a209.155,209.155,0,0,0-105.495-46.513h53.574a2.879,2.879,0,0,0,2.646,1.744,2.884,2.884,0,0,0,2.885-2.883,2.884,2.884,0,0,0-2.885-2.885,2.872,2.872,0,0,0-2.723,1.975h-77.021v-3.1a1.025,1.025,0,0,0-1.025-1.024h-8.075a1.024,1.024,0,0,0-1.024,1.024v3.1h-76.712a2.874,2.874,0,0,0-2.725-1.975,2.883,2.883,0,0,0-2.882,2.885,2.883,2.883,0,0,0,2.882,2.883,2.888,2.888,0,0,0,2.65-1.744h52.526c-2.42.34-4.833.707-7.208,1.125a1.026,1.026,0,0,0-.832,1.186,1.026,1.026,0,0,0,1.008.846.865.865,0,0,0,.178-.016c3.972-.7,8.045-1.291,12.1-1.76a1.024,1.024,0,0,0,.9-1.137,1.021,1.021,0,0,0-.078-.244h10.56a1.009,1.009,0,0,0,.745.338l.061,0c2.263-.127,4.546-.191,6.828-.242v2.831a1.025,1.025,0,0,0,1.024,1.024h8.075a1.025,1.025,0,0,0,1.025-1.024v-2.79a207.331,207.331,0,0,1,128.56,48.646l.01.008a208.242,208.242,0,0,1,56.492,75.573v0a205.41,205.41,0,0,1,17.349,83.114,207.96,207.96,0,0,1-5.526,47.625q.157-3.365.288-6.785c.431-11.057-.381-25.757-16.789-28.23l-21.54-3.942c-.828,5.523-4.429,9.967-10.344,12.6a29.1,29.1,0,0,1-11.7,2.352,30.859,30.859,0,0,1-6.248-.639l-1.033,22.747a1.023,1.023,0,0,1-1.022.977l-.047,0a1.02,1.02,0,0,1-.977-1.067l1.051-23.159a20.714,20.714,0,0,1-7.339-3.657,13.176,13.176,0,0,1-4.837-12.78l-10.417.1c-13.14-.1-22.63,12.112-20.765,24.18l6.61,33.594.344-29.893a1.026,1.026,0,0,1,1.025-1.012h.012a1.024,1.024,0,0,1,1.012,1.036l-.473,41.1-5.79.918-15.823,2.506-62.54-45.814a3.319,3.319,0,0,0-3.534-.256,3.305,3.305,0,0,0-1.766,3.071l1.669,43.153a14.518,14.518,0,0,0-2.317,3.731l-22.544-3.352a9.285,9.285,0,0,0-6.515,1.451l-24.36,16.075-4.747-17.857c.035-.021.079-.012.111-.037l26.3-19.92a1.025,1.025,0,0,0,.378-1.059l-2.6-10.713a35.529,35.529,0,0,0,21.589-13.362c5.511-7.107,7.064-15.189,4.367-22.76-2.792-7.839-9.819-14.134-18.629-16.863a44.32,44.32,0,0,0-5.05-1.061,20.689,20.689,0,0,1-3.825-.858c-10.115-3.806-12.238-10.758-12.238-15.923a1.025,1.025,0,0,1,1.025-1.024,1.025,1.025,0,0,1,1.024,1.024c0,6.476,3.772,11.319,10.91,14.005a9.971,9.971,0,0,0,1.256.342c-1.26-1.93-1.64-4.776-1.117-8.7.064-.467.173-1.071.3-1.784,1.021-5.706,3.408-19.068-6.664-25.189-9.959-6.052-9.009-15.626-8.972-15.968,1.965-10.969.482-19.9-4.4-26.523-5.987-8.123-15.61-10.865-22.626-11.733-13.781-1.7-23.557,1.914-29.894,11.063-3.274,4.73-4.3,9.652-2.81,13.5a9.6,9.6,0,0,0,4.391,4.935c-.588,3.864-2.921,21.661,2.631,28.775a7.5,7.5,0,0,0,4.727,2.883c1,3.721,3.307,6.019,6.038,8.707.372.365.753.748,1.133,1.127l-51.6-9.875-42.653-31.045c-1.493-3.223-3.683-4.243-5.275-4.526a7.637,7.637,0,0,0-.81-.064l-1.772-4.741a2.1,2.1,0,0,0-.159-.258,1.028,1.028,0,0,0-.191-.35l-.081-.092-.039-.047-5.128-5.962a1.032,1.032,0,0,0-1.137-.291,1.023,1.023,0,0,0-.664.965l.054,8.06a1,1,0,0,0,.176.537c.011.037,0,.076.019.113l2.177,5.829a6.425,6.425,0,0,0-.305,4.145,3.247,3.247,0,0,0,2.772,2.459l2.323,6.218a2.2,2.2,0,0,0,1.151,1.235,2.247,2.247,0,0,0,.916.2,2.246,2.246,0,0,0,.773-.141l2.223-.83,25.909,45.669a1.034,1.034,0,0,0,.6.475l26.647,7.988,8.3,70.076-28.4,79.623a205.507,205.507,0,0,1-23.275-27.562v-44.724a1.023,1.023,0,0,0-1.024-1.024h-23.3c-.552-1.453-1.11-2.9-1.627-4.37a202.979,202.979,0,0,1-8.541-32,1.035,1.035,0,0,0-1.19-.824,1.026,1.026,0,0,0-.826,1.192,205.762,205.762,0,0,0,8.012,30.484h-31.256a1.023,1.023,0,0,0-1.024,1.024v51.035a1.025,1.025,0,0,0,1.024,1.024h51.95a1.023,1.023,0,0,0,1.025-1.024v-7.179c1.5,2.334,3.034,4.651,4.63,6.927a207.34,207.34,0,0,0,25.12,29.648l0,0c2.854,2.819,5.962,5.691,9.238,8.541a209.139,209.139,0,0,0,26.3,19.471h0c3.348,2.129,6.924,4.233,10.938,6.427.009.006.023,0,.031.008a209.751,209.751,0,0,0,100.132,25.441c2.29,0,4.675-.051,7.221-.141l25.341,78.84a1.034,1.034,0,0,0,.512.6,1.046,1.046,0,0,0,.463.111,1.045,1.045,0,0,0,.326-.053l5.015-1.682a6.662,6.662,0,0,1-.772,4.685l-2.144,1.533-4.946,2.118a4.674,4.674,0,0,0-2.606,4.628v.721a2.337,2.337,0,0,0,.61,1.545H2899.468a1.023,1.023,0,0,0-1.025,1.024,1.025,1.025,0,0,0,1.025,1.024h268.344a1.024,1.024,0,0,0,1.025-1.024,1.023,1.023,0,0,0-1.025-1.024h-89.505c.141-.084.284-.158.42-.25l14.232-6.894a1.008,1.008,0,0,0,.389-.33,4.411,4.411,0,0,0,.115-4.962l-4.588-8.855,4.289-1.438a1.021,1.021,0,0,0,.688-1.094l-9.234-75.779c2.47-.641,5-1.338,7.546-2.094l0,0A208.957,208.957,0,0,0,3194.089-392.6l17.078-.926a1.02,1.02,0,0,0,.873-.594,251.544,251.544,0,0,0,16.505-46.566Zm-193.616-290.18h-6.027v-6.027h6.027Zm186.763,105.614c-.461-.869-.912-1.744-1.383-2.6-.51-.934-1.045-1.854-1.569-2.778-.482-.85-.955-1.7-1.449-2.549-.535-.912-1.092-1.809-1.641-2.713-.51-.842-1.009-1.69-1.53-2.522-.562-.9-1.146-1.776-1.719-2.666-.535-.826-1.059-1.657-1.6-2.477-.6-.9-1.227-1.786-1.844-2.68-.543-.787-1.074-1.582-1.627-2.36-.686-.967-1.4-1.918-2.1-2.872q-1.536-2.09-3.128-4.145c-.7-.908-1.394-1.821-2.112-2.717-.617-.768-1.254-1.522-1.881-2.282-.673-.815-1.334-1.639-2.018-2.444-.64-.752-1.3-1.487-1.951-2.231-.692-.795-1.379-1.6-2.086-2.383-.66-.731-1.339-1.448-2.01-2.172-.717-.776-1.429-1.557-2.157-2.323-.674-.7-1.365-1.391-2.045-2.086-.751-.766-1.5-1.536-2.26-2.293-.68-.672-1.378-1.327-2.07-1.991-.784-.754-1.562-1.514-2.359-2.258-.7-.647-1.406-1.278-2.111-1.918-.811-.735-1.619-1.477-2.442-2.2-.707-.621-1.427-1.225-2.143-1.836s-1.406-1.223-2.123-1.819a49.059,49.059,0,0,1,37.856-17.7,49.369,49.369,0,0,1,49.316,49.314,49.251,49.251,0,0,1-29.3,45.1c-.352-.8-.731-1.592-1.094-2.389-.413-.908-.82-1.819-1.245-2.721-.447-.942-.914-1.875-1.375-2.811-.44-.893-.871-1.791-1.321-2.678C3222.7-623.386,3222.2-624.312,3221.706-625.244ZM2853.479-406.062h-49.9v-48.986H2834.5a206.911,206.911,0,0,0,18.977,39.568Zm6.777-2.741a205.183,205.183,0,0,1-21.513-40.723h21.513Zm313.167-87.3a1.953,1.953,0,0,1,1.952,1.952,1.967,1.967,0,0,1-1.952,1.969,1.97,1.97,0,0,1-1.969-1.969A1.956,1.956,0,0,1,3173.423-496.1Zm-11.791,86.622-16.009,5.37-30.491-22.452.331-4.067,14.854,2.061ZM3115.806-386.7a4.3,4.3,0,0,0,3.239,1.778c.094.006.191.008.285.008,3.174,0,6.544-3.022,7.593-4.044l1.035-.057,4.345.033,3.6,2.669a.239.239,0,0,1,.1.238.236.236,0,0,1-.161.2l-24.763,9.1,2.147-26.357,9.084,6.738c-2.635.861-6.463,2.544-7.437,5.276A4.536,4.536,0,0,0,3115.806-386.7Zm21.315-1.258-1.346-1,27.156.2a.716.716,0,0,1,.146.469.646.646,0,0,1-.411.508l-52.307,19.8.533-6.54,25.655-9.426a2.3,2.3,0,0,0,1.483-1.832A2.3,2.3,0,0,0,3137.121-387.955Zm-23.7-17.581.248-3.05,4.393,3.268a4.154,4.154,0,0,0,2.494.824,4.361,4.361,0,0,0,1.186-.168l6.837-2.233a2.043,2.043,0,0,0,1.453-1.6,2.049,2.049,0,0,0-.8-2.018l-14.532-10.7.242-2.948,28.314,20.85-18.482,6.2Zm.444-5.46.637-7.822,13.475,9.963-6.839,2.231a2.116,2.116,0,0,1-1.854-.338Zm11.037-36.152,5.765-.914-.2,17.443-5.564-.772-9.271-1.287.392-4.792a7.1,7.1,0,0,0-2.861-6.257l-1.753-1.285Zm-80.937-43.829a1.253,1.253,0,0,1,1.363.1l66.623,48.805a5.029,5.029,0,0,1,2.029,4.436l-5.7,69.957a.64.64,0,0,1-.4.553.645.645,0,0,1-.678-.109l-59.67-51.225a4.855,4.855,0,0,1-1.685-3.487l-.311-7.933a7.638,7.638,0,0,0,.861.149c.117.01.233.014.35.014a4.629,4.629,0,0,0,3.854-2.168,4.092,4.092,0,0,0,.1-4.313c-1.358-2.346-4.558-3.882-5.5-4.3l-1.91-49.3A1.255,1.255,0,0,1,3043.964-490.977Zm-.924,47.812.16,4.159a1.039,1.039,0,0,0,1.063.983,1.009,1.009,0,0,0,.7-.317,9.926,9.926,0,0,1,3.96,3.171,2.037,2.037,0,0,1-.057,2.188,2.609,2.609,0,0,1-2.3,1.209c-3.66-.307-4.65-3.54-4.834-6.2A9.458,9.458,0,0,1,3043.04-443.165Zm-55.928,17h0l25.542-16.857a7.318,7.318,0,0,1,5.085-1.137l22.227,3.3a10.092,10.092,0,0,0-.281,3.028c.242,3.458,1.584,5.933,3.766,7.189l.344,8.769a6.9,6.9,0,0,0,2.4,4.964l.587.5,30.026,30.027-10.148,7.533L3024.3-398.736l-3.934-20.944a1.027,1.027,0,0,0-1.195-.815,1.022,1.022,0,0,0-.817,1.2l3.882,20.666-25,11.156a1.038,1.038,0,0,0-.179.008,1,1,0,0,0-.465.279l-55.881,24.944-2.908-3.622-8.953-11.186,0,0L2923.3-384Zm2.489-47.871-7.156-1.658,1.162-6.873a24.5,24.5,0,0,0,11.5,4.624,32.674,32.674,0,0,0,4.8.348,35.628,35.628,0,0,0,4.661-.322l2.483,10.217-25.192,19.084-2.449-9.2,2.682-15.851,7.037,1.631a1.016,1.016,0,0,0,.234.026,1.029,1.029,0,0,0,1-.795A1.027,1.027,0,0,0,2989.6-474.038Zm-46.076-103.3c-1.318,5.085-1.665,8.787-1.339,11.692a5.609,5.609,0,0,1-2.7-1.965c-4.76-6.093-2.946-22.03-2.3-26.626a16.307,16.307,0,0,0,2.026.617,6.121,6.121,0,0,1,3.778,2.661C2944.909-588.1,2945.1-583.392,2943.523-577.34Zm3.709-37.607a1.019,1.019,0,0,1-.529.148,1.03,1.03,0,0,1-.879-.494,1.028,1.028,0,0,1,.348-1.407,22.979,22.979,0,0,1,20.668-.4,1.024,1.024,0,0,1,.5,1.358,1.028,1.028,0,0,1-1.357.5A21.215,21.215,0,0,0,2947.233-614.947Zm-104.813,13.02a.174.174,0,0,1,.093-.2l3.015-1.127.232.152,1.527,4.085a6.549,6.549,0,0,0-2.465,1.059,7.385,7.385,0,0,0-.7.582Zm7.173,18.742a.17.17,0,0,1-.2-.092l-2.076-5.55a3.581,3.581,0,0,1,1.706.545l2.488,4.38Zm1.1-6.314a1.021,1.021,0,0,0-.286-.322,5.891,5.891,0,0,0-4.592-.981,1.234,1.234,0,0,1-1.441-.9,4.072,4.072,0,0,1,1.654-4.6,5.331,5.331,0,0,1,3.854-.76c1.66.295,2.965,1.5,3.872,3.587a1.038,1.038,0,0,0,.337.418l10.87,7.912-7.617,7.371Zm58.043,69.852,15.362-2.915a1.054,1.054,0,0,0,.385-.17c.021-.016.037-.033.057-.049a1.01,1.01,0,0,0,.33-.469c0-.01.016-.014.018-.025a.687.687,0,0,0,.008-.092,1.516,1.516,0,0,0,.035-.15c0-.033-.011-.061-.013-.094a.991.991,0,0,0-.016-.143.953.953,0,0,0-.067-.219.774.774,0,0,0-.06-.123,1.114,1.114,0,0,0-.159-.194.94.94,0,0,0-.081-.08,1.015,1.015,0,0,0-.333-.18l-3.246-.971L2880.02-537.8l-21.636-38.14,8.254-7.986,29.711,21.625-7.769,11.666a1.026,1.026,0,0,0,.285,1.422,1.029,1.029,0,0,0,.567.172,1.02,1.02,0,0,0,.852-.457l7.938-11.917,53.9,10.316c5.577,6.734-.265,17.748-.313,17.842-.35.615-8.5,15.157-2.966,25.667,3.021,5.747,9.512,9.082,19.466,9.91.293-.022,7.22-.469,11.086,9.7a11.676,11.676,0,0,0,2.412,3.762l-4.3,25.417h-61.569Zm23.115,160.654-10.562,9.221a207.326,207.326,0,0,1-24.81-18.361,5.776,5.776,0,0,1,3.034-2.78c1.594-.565,3.54-.262,5.784.9,7.211,3.735,12.335.481,14.191-1.082a.645.645,0,0,1,.78-.027c.314.211.682.488,1.035.762h0c.968.824,2.008,1.989,1.567,2.932a3.748,3.748,0,0,1-.832,1.082,16.052,16.052,0,0,1-3.885,2.467,5.1,5.1,0,0,1-1.631.453,1.024,1.024,0,0,0-1.024,1.024,1.023,1.023,0,0,0,1.024,1.024,6.626,6.626,0,0,0,2.42-.611,18.041,18.041,0,0,0,4.4-2.782,5.362,5.362,0,0,0,1.086-1.309l7.128,5.4.011-.016c.027.022.041.059.07.08a1.116,1.116,0,0,1,.443.809A1.135,1.135,0,0,1,2931.846-358.994Zm.32-3.794-7.158-5.421a5,5,0,0,0-1.545-2.924l4.454-3.817,7.64,9.547Zm99.761,44.989a208.026,208.026,0,0,1-47.7-5.577l-.192-6.419c1.086.049,2.171.1,3.208.1,9.537,0,16.953-2.032,20.7-5.749a8.51,8.51,0,0,0,1.627-2.235,3.8,3.8,0,0,0,.01-2.819c-.863-2.118-3.922-4.073-8.18-5.23-5.906-1.6-11.094-.877-16.113-.172l-.761.106c-1,.137-2.015.311-3.031.483l.457,14.376a.634.634,0,0,0-.019.086,1.067,1.067,0,0,0,.022.111l.208,6.874a206.409,206.409,0,0,1-45.945-17.32,189.783,189.783,0,0,0,30.146-3.692c4.1-.76,8.029-1.469,11.988-1.959,1.959-.365,3.938-.719,5.89-.987l.761-.107c5.225-.731,10.625-1.489,16.935.223a19.836,19.836,0,0,1,7.494,3.7l-10.9-41.8,24.86-11.092,46.385,21.786-29.893,21.846a17.673,17.673,0,0,0-6.415,19.719l5.023,15.628C3036.2-317.846,3034.013-317.8,3031.926-317.8Zm59.78,83.567a2.367,2.367,0,0,1,.1,2.524l-14.1,6.843a4.178,4.178,0,0,1-2.131.807h-12.835a.347.347,0,0,1-.352-.332l0-.9a2.526,2.526,0,0,1,1.461-2.608l3.469-1.481a1.017,1.017,0,0,0,.344.068h6.7a1.022,1.022,0,0,0,1.024-1.024,1.023,1.023,0,0,0-1.024-1.024h-3.633l.356-.254a.983.983,0,0,0,.506-.361l.1-.072a1.009,1.009,0,0,0,.409-.916,8.543,8.543,0,0,0,.659-5.761l5.522-1.852a15.441,15.441,0,0,1,.769,5.6,1.024,1.024,0,0,0,.843,1.178.934.934,0,0,0,.168.014,1.022,1.022,0,0,0,1.01-.856c.344-2.071-.4-5.062-.844-6.593l6.692-2.243Zm.661-92.524-10.759-19.8a1.028,1.028,0,0,0-1.219-.486,1.024,1.024,0,0,0-.7,1.11l2.784,22.85,9.242,75.837-25.6,8.582-30.7-95.513a15.632,15.632,0,0,1,5.673-17.439l43.839-32.032,20.93,17.968a2.678,2.678,0,0,0,1.536.617,1.03,1.03,0,0,0,.474.145,1.07,1.07,0,0,0,.363-.065l55.154-20.877a2.672,2.672,0,0,0,1.711-2.1,2.7,2.7,0,0,0,0-.772l22.878.168A206.74,206.74,0,0,1,3092.368-326.757Zm118.071-68.779-49.984,2.708-.006,0-34.028,1.844a1.025,1.025,0,0,0-.683.314c-1.013,1.049-4.091,3.708-6.4,3.708-.058,0-.115,0-.17,0a2.22,2.22,0,0,1-1.727-.969,2.594,2.594,0,0,1-.636-2.5c.778-2.192,5.162-3.825,7.778-4.491.031,0,.06.031.093.031a1.007,1.007,0,0,0,.6-.229l38.682-12.987.273-.09h0a.948.948,0,0,0,.542-.182l25.335-8.451,7.532,7.939a1.009,1.009,0,0,0,.741.32,1.026,1.026,0,0,0,.7-.281,1.021,1.021,0,0,0,.04-1.446l-7.684-8.1,2.639-28.986,2.022-25.558a1.048,1.048,0,0,1,1.1-.94,1.02,1.02,0,0,1,.94,1.1l-2.005,25.345a86.52,86.52,0,0,1,30.492,5.986A249.053,249.053,0,0,1,3210.438-395.535Z" transform="translate(-2784.96 738.934)"/></svg>